<?xml version="1.0" standalone="no"?>
<!DOCTYPE svg PUBLIC "-//W3C//DTD SVG 20010904//EN"
 "http://www.w3.org/TR/2001/REC-SVG-20010904/DTD/svg10.dtd">
<svg version="1.0" xmlns="http://www.w3.org/2000/svg"
 width="700.000000pt" height="700.000000pt" viewBox="0 0 700.000000 700.000000"
 preserveAspectRatio="xMidYMid meet">
<metadata>
Created by potrace 1.11, written by Peter Selinger 2001-2013
</metadata>
<g transform="translate(0.000000,700.000000) scale(0.100000,-0.100000)"
fill="#000000" stroke="none">
<path d="M6115 6881 c-17 -9 -64 -36 -105 -58 -108 -58 -171 -93 -205 -113
-40 -24 -443 -245 -525 -288 -36 -19 -73 -41 -82 -50 -10 -8 -18 -12 -18 -8 0
3 -18 -5 -40 -19 -22 -14 -42 -25 -44 -25 -2 0 -39 -20 -80 -45 -42 -25 -79
-45 -82 -45 -7 0 -164 -91 -164 -95 0 -2 7 -30 16 -62 28 -103 65 -247 69
-268 2 -11 4 -20 6 -20 1 0 3 -9 4 -20 2 -11 15 -59 28 -107 14 -49 23 -88 20
-88 -3 0 0 -7 7 -15 7 -8 10 -15 7 -15 -3 0 -1 -15 4 -32 6 -18 12 -40 14 -48
1 -8 8 -35 15 -60 7 -25 14 -52 16 -60 1 -8 19 -75 38 -149 19 -74 33 -138 30
-142 -2 -5 -11 -6 -18 -3 -28 11 -26 -18 9 -153 20 -76 38 -145 40 -153 2 -8
20 -78 40 -155 20 -77 38 -147 40 -155 8 -34 75 -288 84 -317 5 -18 8 -33 6
-33 -3 0 0 -12 6 -27 6 -16 13 -38 15 -51 2 -12 20 -81 39 -153 19 -72 35
-135 35 -139 0 -5 -29 18 -64 53 -35 34 -184 179 -331 322 -148 143 -321 312
-386 375 -357 348 -582 566 -591 571 -16 10 7 20 29 12 16 -6 17 -5 3 12 -8
10 -53 56 -100 101 -47 45 -134 130 -193 188 -103 101 -131 118 -153 97 -5 -5
-34 -22 -64 -39 -204 -109 -580 -318 -603 -334 -15 -10 -44 -20 -65 -21 -20
-2 -51 -11 -68 -20 l-32 -16 19 -83 c11 -46 22 -96 24 -112 2 -15 7 -36 10
-46 7 -21 13 -51 21 -100 3 -19 8 -38 10 -41 2 -4 6 -24 10 -45 3 -22 14 -74
25 -116 11 -43 18 -81 18 -85 -1 -4 0 -15 4 -23 3 -8 9 -33 13 -55 4 -22 8
-42 9 -45 1 -5 19 -86 31 -140 3 -14 7 -36 10 -50 2 -14 7 -31 10 -39 2 -8 7
-30 10 -50 7 -39 8 -44 17 -81 4 -14 9 -37 12 -52 12 -67 16 -84 21 -98 3 -8
8 -31 10 -51 5 -36 5 -36 -33 -36 -74 -1 -70 12 -38 -128 8 -38 17 -79 20 -90
2 -11 6 -30 9 -41 9 -42 48 -219 52 -239 2 -11 6 -31 9 -45 6 -33 11 -55 24
-110 5 -25 13 -61 16 -80 3 -19 10 -51 15 -70 9 -32 63 -281 74 -340 3 -14 8
-36 12 -50 6 -27 -27 6 -301 295 -77 81 -185 195 -241 254 -56 58 -120 126
-143 151 -24 25 -100 106 -171 180 -70 74 -164 173 -208 220 -78 81 -92 108
-51 95 43 -14 42 -13 -251 295 -86 91 -176 185 -199 210 -24 25 -67 71 -97
102 l-55 57 -57 -31 c-31 -17 -92 -51 -134 -75 -43 -23 -82 -43 -88 -43 -5 0
-10 -4 -10 -10 0 -5 -5 -10 -10 -10 -6 0 -62 -29 -125 -65 -63 -36 -119 -65
-124 -65 -5 0 -14 -7 -21 -15 -7 -9 -15 -13 -18 -11 -3 3 -17 -3 -31 -13 -24
-17 -72 -43 -251 -140 -36 -19 -67 -37 -70 -40 -3 -3 -21 -14 -40 -23 -59 -29
-138 -74 -155 -88 -8 -7 -15 -9 -15 -6 0 4 -13 -2 -28 -13 -17 -12 -41 -19
-58 -17 -25 2 -156 -54 -174 -75 -3 -3 -13 -9 -24 -12 -16 -6 -12 -13 30 -52
27 -25 92 -86 144 -134 52 -49 111 -103 130 -121 19 -18 67 -62 106 -99 38
-36 121 -113 184 -171 62 -58 130 -121 150 -140 20 -19 87 -82 149 -140 62
-58 128 -118 146 -135 152 -142 263 -246 294 -275 21 -19 84 -78 141 -130 57
-52 124 -115 150 -140 26 -25 91 -85 144 -135 54 -49 119 -110 145 -135 26
-25 94 -88 150 -140 57 -52 134 -125 172 -161 38 -36 69 -64 69 -63 0 2 19
-16 43 -39 38 -37 215 -203 317 -297 19 -18 84 -78 144 -134 60 -55 143 -132
184 -171 42 -38 92 -86 113 -105 20 -19 85 -80 144 -135 60 -55 134 -125 166
-155 51 -49 137 -128 263 -243 44 -41 29 -43 156 28 86 48 161 90 240 133 109
58 155 85 168 95 6 5 12 6 12 1 0 -5 4 -4 8 2 4 5 43 30 87 54 44 24 98 54
120 66 22 12 63 34 92 50 28 15 50 31 47 35 -2 4 -7 27 -10 51 -3 24 -8 50
-11 58 -3 8 -7 29 -9 45 -3 17 -10 55 -16 85 -6 30 -12 62 -13 70 -3 17 -7 39
-35 190 -11 58 -22 116 -24 130 -3 14 -10 50 -16 80 -6 30 -13 66 -15 80 -5
37 -13 79 -35 190 -23 117 -31 158 -35 185 -1 11 -14 81 -28 155 -15 74 -29
151 -32 170 -3 19 -8 43 -11 53 -3 11 -7 29 -9 40 -8 60 -20 125 -31 177 -3
14 -7 36 -9 50 -2 14 -9 50 -15 80 -6 30 -13 66 -16 80 -4 23 -7 36 -19 100
-3 14 -7 40 -10 59 -2 18 -7 41 -9 50 -3 9 -7 32 -10 51 -3 19 -8 46 -11 60
-15 74 -25 128 -30 155 -4 26 -15 86 -31 173 -3 12 -1 22 4 22 5 0 17 -10 28
-22 12 -13 67 -66 123 -118 56 -52 119 -111 140 -130 21 -19 88 -82 151 -140
62 -58 132 -122 154 -143 23 -22 86 -80 140 -130 55 -51 116 -108 136 -127 47
-44 235 -218 319 -296 35 -32 83 -77 106 -99 23 -22 88 -83 145 -135 57 -52
125 -115 151 -140 26 -25 87 -81 134 -125 48 -44 121 -112 163 -152 80 -76 80
-76 142 -38 19 12 50 28 68 36 17 8 32 17 32 21 0 5 5 8 10 8 6 0 45 20 88 44
42 24 106 59 142 78 36 20 103 57 150 83 47 26 110 61 140 77 203 111 200 109
196 145 -3 18 -7 36 -9 40 -5 7 -13 51 -22 113 -2 14 -9 48 -15 75 -6 28 -16
73 -20 100 -5 28 -12 64 -15 80 -22 114 -38 203 -41 220 -1 11 -3 21 -4 23 -3
3 -5 11 -14 65 -4 27 -10 59 -12 70 -17 81 -26 127 -30 161 -3 22 -7 43 -9 47
-3 4 -7 24 -10 45 -4 22 -8 46 -10 54 -3 8 -7 33 -10 55 -4 22 -11 57 -16 78
-6 21 -12 54 -13 72 -2 18 -6 37 -9 42 -3 5 -8 27 -11 49 -3 21 -7 48 -10 59
-4 19 -34 177 -42 223 -13 74 -14 71 13 66 30 -6 31 -25 -12 196 -14 74 -28
146 -30 160 -3 14 -7 36 -10 50 -3 14 -9 50 -15 80 -6 30 -12 66 -15 80 -3 14
-8 36 -10 50 -2 14 -13 70 -24 125 -11 55 -23 116 -26 135 -3 19 -15 82 -27
140 -11 58 -22 114 -23 125 -5 31 -14 79 -30 157 -16 74 -14 83 20 90 11 2 18
10 16 19 -3 12 -15 69 -25 124 -29 150 -47 245 -51 265 -3 14 -8 40 -11 59 -3
18 -8 43 -10 55 -3 11 -11 55 -19 96 -7 41 -23 122 -34 180 -21 109 -27 141
-36 188 -3 15 -8 38 -11 52 -3 14 -8 39 -10 55 -2 17 -6 41 -10 55 -3 14 -14
70 -24 125 -11 55 -22 112 -25 128 -11 55 -16 83 -25 132 -5 28 -12 61 -14 75
-13 61 -16 77 -22 115 -3 22 -7 48 -10 57 -3 9 -7 26 -9 39 -6 30 -7 31 -40
10z"/>
</g>
</svg>
