<svg xmlns="http://www.w3.org/2000/svg" xmlns:xlink="http://www.w3.org/1999/xlink" viewBox="0 0 699.76 680.31"><defs><style>.cls-1{fill:#fff;}.cls-2{fill:url(#linear-gradient);}.cls-3{fill:url(#linear-gradient-2);}.cls-4{fill:url(#linear-gradient-3);}.cls-5{fill:url(#linear-gradient-4);}.cls-6{fill:url(#linear-gradient-5);}</style><linearGradient id="linear-gradient" x1="560.86" y1="115.53" x2="585.88" y2="260.49" gradientUnits="userSpaceOnUse"><stop offset="0" stop-color="#fff"/><stop offset="1"/></linearGradient><linearGradient id="linear-gradient-2" x1="337.05" y1="152.72" x2="362.07" y2="297.68" xlink:href="#linear-gradient"/><linearGradient id="linear-gradient-3" x1="583.96" y1="240.37" x2="596.46" y2="377.82" xlink:href="#linear-gradient"/><linearGradient id="linear-gradient-4" x1="112.49" y1="283.23" x2="124.99" y2="420.68" xlink:href="#linear-gradient"/><linearGradient id="linear-gradient-5" x1="404.92" y1="256.65" x2="417.42" y2="394.1" xlink:href="#linear-gradient"/></defs><title>Asset 1</title><g id="Layer_2" data-name="Layer 2"><g id="Layer_1-2" data-name="Layer 1"><polygon class="cls-1" points="610.49 549.45 412.54 365.53 462.35 631.11 373.08 680.31 0 332.9 17.38 323.32 201.15 323.32 317.07 445.4 290.62 323.32 526.8 323.32 529.98 323.32 665.88 323.32 699.76 500.25 610.49 549.45"/><polygon class="cls-2" points="650.22 185.25 505 185.25 476.73 76.08 544.62 38.66 614.75 0 622.15 38.66 650.22 185.25"/><polygon class="cls-3" points="401.13 185.25 284.21 185.25 358.83 144.12 401.13 185.25"/><polygon class="cls-4" points="671.05 323.32 535.15 323.32 499.4 185.25 644.62 185.25 671.05 323.32"/><polygon class="cls-5" points="208.02 323.32 24.25 323.32 144.89 256.83 208.02 323.32"/><polygon class="cls-6" points="537.54 323.32 301.36 323.32 272.21 188.79 278.63 185.25 395.55 185.25 537.54 323.32"/></g></g></svg>